<svg xmlns="http://www.w3.org/2000/svg" viewBox="0 0 1600 900" preserveAspectRatio="xMidYMid slice"><defs>
<linearGradient id="bg" x2="0" y2="1"><stop stop-color="#181218"/><stop offset=".62" stop-color="#30242b"/><stop offset="1" stop-color="#050709"/></linearGradient>
<linearGradient id="floor" x2="0" y2="1"><stop stop-color="#26130e"/><stop offset="1" stop-color="#070605"/></linearGradient>
<linearGradient id="wood" x2="0" y2="1"><stop stop-color="#c4773e"/><stop offset=".5" stop-color="#4a2d1b"/><stop offset="1" stop-color="#160d08"/></linearGradient>
<radialGradient id="glow"><stop stop-color="#ff8d32" stop-opacity=".85"/><stop offset=".3" stop-color="#ff8d32" stop-opacity=".25"/><stop offset="1" stop-color="#ff8d32" stop-opacity="0"/></radialGradient>
<filter id="blur"><feGaussianBlur stdDeviation="18"/></filter>
<filter id="shadow"><feGaussianBlur stdDeviation="7"/></filter></defs><rect width="1600" height="900" fill="url(#bg)"/><path d="M0 590V120L210 65L420 120V590M1180 590V120L1390 65L1600 120V590" fill="#262028" stroke="#c4773e" stroke-width="14"/><path d="M400 590V300L800 55L1200 300V590Z" fill="#1b151b" stroke="#b38b61" stroke-width="16"/><path d="M510 590V350L800 165L1090 350V590" fill="#08090a" stroke="#c4773e" stroke-width="9"/><path d="M555 570v-110h55v110" fill="#3d2b25" stroke="#9a6840" stroke-width="5"/><path d="M637 570v-110h55v110" fill="#3d2b25" stroke="#9a6840" stroke-width="5"/><path d="M719 570v-110h55v110" fill="#3d2b25" stroke="#9a6840" stroke-width="5"/><path d="M801 570v-110h55v110" fill="#3d2b25" stroke="#9a6840" stroke-width="5"/><path d="M883 570v-110h55v110" fill="#3d2b25" stroke="#9a6840" stroke-width="5"/><path d="M965 570v-110h55v110" fill="#3d2b25" stroke="#9a6840" stroke-width="5"/><path d="M1047 570v-110h55v110" fill="#3d2b25" stroke="#9a6840" stroke-width="5"/><circle cx="800" cy="310" r="185" fill="url(#glow)"/><path d="M800 500C690 400 770 355 800 220C860 345 925 405 800 500Z" fill="#ff8d32"/><path d="M800 475C755 420 800 365 800 300C840 370 855 430 800 475Z" fill="#fff1ad"/><circle cx="500" cy="650" r="8" fill="#ff8d32"/><circle cx="585" cy="632" r="11" fill="#ff8d32"/><circle cx="670" cy="650" r="14" fill="#ff8d32"/><circle cx="755" cy="632" r="8" fill="#ff8d32"/><circle cx="840" cy="650" r="11" fill="#ff8d32"/><circle cx="925" cy="632" r="14" fill="#ff8d32"/><circle cx="1010" cy="650" r="8" fill="#ff8d32"/><circle cx="1095" cy="632" r="11" fill="#ff8d32"/><path d="M0 610L800 485L1600 610V900H0Z" fill="url(#floor)"/><path d="M0 700L800 555L1600 700M0 810L800 650L1600 810" stroke="#c4773e" stroke-opacity=".2" stroke-width="5"/><path d="M180 680l45-55 45 55v70h-90Z" fill="#38251a" stroke="#c4773e" stroke-width="5"/><circle cx="225" cy="665" r="8" fill="#ff8d32"/><path d="M360 680l45-55 45 55v70h-90Z" fill="#38251a" stroke="#c4773e" stroke-width="5"/><circle cx="405" cy="665" r="8" fill="#ff8d32"/><path d="M540 680l45-55 45 55v70h-90Z" fill="#38251a" stroke="#c4773e" stroke-width="5"/><circle cx="585" cy="665" r="8" fill="#ff8d32"/><path d="M720 680l45-55 45 55v70h-90Z" fill="#38251a" stroke="#c4773e" stroke-width="5"/><circle cx="765" cy="665" r="8" fill="#ff8d32"/><path d="M900 680l45-55 45 55v70h-90Z" fill="#38251a" stroke="#c4773e" stroke-width="5"/><circle cx="945" cy="665" r="8" fill="#ff8d32"/><path d="M1080 680l45-55 45 55v70h-90Z" fill="#38251a" stroke="#c4773e" stroke-width="5"/><circle cx="1125" cy="665" r="8" fill="#ff8d32"/><path d="M1260 680l45-55 45 55v70h-90Z" fill="#38251a" stroke="#c4773e" stroke-width="5"/><circle cx="1305" cy="665" r="8" fill="#ff8d32"/><path d="M1440 680l45-55 45 55v70h-90Z" fill="#38251a" stroke="#c4773e" stroke-width="5"/><circle cx="1485" cy="665" r="8" fill="#ff8d32"/></svg>