<svg xmlns="http://www.w3.org/2000/svg" viewBox="0 0 1600 900">
<defs>
 <linearGradient id="bg" x2="0" y2="1"><stop stop-color="#071019"/><stop offset=".55" stop-color="#111a21"/><stop offset="1" stop-color="#05070a"/></linearGradient>
 <linearGradient id="floor" x2="0" y2="1"><stop stop-color="#151c20"/><stop offset="1" stop-color="#050608"/></linearGradient>
 <linearGradient id="wood" x2="0" y2="1"><stop stop-color="#33261c"/><stop offset=".45" stop-color="#17120f"/><stop offset="1" stop-color="#080708"/></linearGradient>
 <linearGradient id="metal" x2="0" y2="1"><stop stop-color="#66717a"/><stop offset=".45" stop-color="#252d32"/><stop offset="1" stop-color="#090b0d"/></linearGradient>
 <radialGradient id="glow"><stop stop-color="#e2a24a" stop-opacity=".8"/><stop offset=".3" stop-color="#e2a24a" stop-opacity=".24"/><stop offset="1" stop-color="#e2a24a" stop-opacity="0"/></radialGradient>
 <filter id="shadow"><feGaussianBlur stdDeviation="16"/></filter>
 <filter id="soft"><feGaussianBlur stdDeviation="5"/></filter>
 <filter id="glowf"><feGaussianBlur stdDeviation="10"/></filter>
 <pattern id="brick" width="90" height="42" patternUnits="userSpaceOnUse"><path d="M0 0H90M0 42H90M45 0V21M0 21H45M90 21H45" stroke="#8c7a67" stroke-opacity=".14" stroke-width="3"/></pattern>
 <pattern id="woodgrain" width="120" height="34" patternUnits="userSpaceOnUse"><path d="M0 9C30 2 65 18 120 7M-20 28C30 18 75 38 140 25" fill="none" stroke="#c69a65" stroke-opacity=".09" stroke-width="3"/></pattern>
</defs>
<rect width="1600" height="900" fill="url(#bg)"/>
<rect x="90" y="70" width="1420" height="590" rx="30" fill="#171415" stroke="#6b5b4a" stroke-width="10"/>
<rect x="105" y="85" width="1390" height="555" fill="url(#brick)" opacity=".6"/>
<g fill="#242022" stroke="#89735a" stroke-width="9"><path d="M130 640V250Q130 125 280 125Q430 125 430 250V640Z"/><path d="M1170 640V250Q1170 125 1320 125Q1470 125 1470 250V640Z"/></g>
<g fill="#0b0b0c" stroke="#b99767" stroke-width="7"><path d="M205 640V275Q205 205 280 205Q355 205 355 275V640Z"/><path d="M1245 640V275Q1245 205 1320 205Q1395 205 1395 275V640Z"/></g>
<g stroke="#d79b49" stroke-width="8" fill="none"><circle cx="800" cy="300" r="150"/><path d="M800 150V450M650 300H950M694 194L906 406M906 194L694 406"/></g>
<circle cx="800" cy="300" r="230" fill="url(#glow)" opacity=".38"/>
<g fill="#9b7a50" stroke="#33291f" stroke-width="7"><rect x="555" y="505" width="490" height="65" rx="12"/><path d="M595 570L565 650H625L650 570M1005 570L1035 650H975L950 570"/></g>
<g fill="#5e4a35"><rect x="640" y="475" width="55" height="28"/><rect x="715" y="450" width="50" height="53"/><rect x="790" y="470" width="45" height="33"/><rect x="860" y="440" width="65" height="63"/></g>
<g fill="#c37b32"><path d="M760 475L800 395L840 475Z"/><path d="M360 535L390 455L420 535Z"/><path d="M1180 535L1210 455L1240 535Z"/></g>
<g fill="#3b2d22" stroke="#a78258" stroke-width="7"><path d="M470 650V535L530 505L590 535V650Z"/><path d="M1010 650V535L1070 505L1130 535V650Z"/></g>
<path d="M0 625L800 505L1600 625V900H0Z" fill="url(#floor)"/>
<path d="M0 700L800 550L1600 700M0 800L800 600L1600 800" stroke="#a47b4f" stroke-opacity=".14" stroke-width="5"/>
</svg>