<svg xmlns="http://www.w3.org/2000/svg" viewBox="0 0 1600 900"><defs><linearGradient id="s" x2="0" y2="1"><stop stop-color="#061711"/><stop offset=".55" stop-color="#145034"/><stop offset="1" stop-color="#030906"/></linearGradient><linearGradient id="f" x2="0" y2="1"><stop stop-color="#24452d"/><stop offset="1" stop-color="#071009"/></linearGradient><radialGradient id="l"><stop stop-color="#9af0b2" stop-opacity=".8"/><stop offset="1" stop-color="#4fbf78" stop-opacity="0"/></radialGradient></defs><rect width="1600" height="900" fill="url(#s)"/><g fill="#0b281b" stroke="#34744e" stroke-width="18"><path d="M0 620V100Q145 20 290 100V620Z"/><path d="M1310 620V80Q1455 0 1600 80V620Z"/></g><path d="M470 900Q520 580 620 390Q690 220 800 90Q910 220 980 390Q1080 580 1130 900Z" fill="#432c1d" stroke="#815331" stroke-width="20"/><path d="M600 900Q650 600 720 430Q770 285 800 210Q830 285 880 430Q950 600 1000 900Z" fill="#1e5938"/><path d="M510 500Q800 300 1090 500" fill="none" stroke="#6a9b61" stroke-width="20"/><g fill="#315f3e" stroke="#5d9b69" stroke-width="8"><path d="M210 590V360L350 285L490 360V590Z"/><path d="M1110 590V340L1250 265L1390 340V590Z"/></g><g fill="#8fe5a4"><circle cx="175" cy="160" r="85"/><circle cx="360" cy="220" r="70"/><circle cx="1440" cy="145" r="95"/><circle cx="1260" cy="225" r="72"/></g><g fill="#b0ffc1"><circle cx="430" cy="410" r="7"/><circle cx="1180" cy="360" r="7"/><circle cx="1040" cy="260" r="5"/></g><ellipse cx="800" cy="330" rx="330" ry="260" fill="url(#l)"/><path d="M0 620L800 500L1600 620V900H0Z" fill="url(#f)"/></svg>