<svg xmlns="http://www.w3.org/2000/svg" viewBox="0 0 1600 900" preserveAspectRatio="xMidYMid slice"><defs><linearGradient id="s" x2="0" y2="1"><stop stop-color="#05140d"/><stop offset=".55" stop-color="#17452c"/><stop offset="1" stop-color="#030a07"/></linearGradient><linearGradient id="g" x2="0" y2="1"><stop stop-color="#173a25"/><stop offset="1" stop-color="#050c08"/></linearGradient><radialGradient id="l"><stop stop-color="#8be0a4" stop-opacity=".8"/><stop offset="1" stop-color="#8be0a4" stop-opacity="0"/></radialGradient></defs><rect width="1600" height="900" fill="url(#s)"/><g fill="#0b2418" stroke="#285f3c" stroke-width="18"><path d="M40 610L120 90L300 500L350 40L520 510L570 130L720 520V610Z"/><path d="M880 610L1030 120L1080 520L1250 40L1300 500L1480 100L1560 610Z"/></g><path d="M0 500Q300 380 540 500T1040 490T1600 470V620H0Z" fill="#0c291b"/><g fill="#93e3a7"><circle cx="250" cy="250" r="7"/><circle cx="470" cy="390" r="5"/><circle cx="1180" cy="260" r="6"/><circle cx="1400" cy="410" r="7"/></g><path d="M0 590L800 455L1600 590V900H0Z" fill="url(#g)"/><path d="M0 655L800 505L1600 655M0 770L800 565L1600 770" fill="none" stroke="#d4b47a" stroke-opacity=".13" stroke-width="5"/><ellipse cx="800" cy="400" rx="420" ry="260" fill="url(#l)" opacity=".4"/><rect width="1600" height="900" fill="none" stroke="#000" stroke-opacity=".35" stroke-width="70"/></svg>