<svg xmlns="http://www.w3.org/2000/svg" viewBox="0 0 1600 900"><defs><linearGradient id="w" x2="0" y2="1"><stop stop-color="#101819"/><stop offset=".7" stop-color="#30403b"/><stop offset="1" stop-color="#080b0d"/></linearGradient><linearGradient id="f" x2="0" y2="1"><stop stop-color="#303a35"/><stop offset="1" stop-color="#0c1212"/></linearGradient><linearGradient id="m" x2="0" y2="1"><stop stop-color="#8d613b"/><stop offset="1" stop-color="#24160f"/></linearGradient><radialGradient id="g"><stop stop-color="#d6e1cb" stop-opacity=".55"/><stop offset="1" stop-color="#d6e1cb" stop-opacity="0"/></radialGradient></defs><rect width="1600" height="900" fill="url(#w)"/><path d="M0 540Q800 490 1600 540V900H0Z" fill="url(#f)"/><path d="M20 535V70H405V535M1195 535V70H1580V535" fill="#18211f" stroke="#6e7b72" stroke-width="25"/><path d="M480 535V155Q800 -5 1120 155V535" fill="#090f0e" stroke="#89968d" stroke-width="28"/><path d="M675 535V255H925V535" fill="#040808" stroke="#718078" stroke-width="16"/><path d="M70 535L170 205L270 535M1330 535L1430 205L1530 535" fill="none" stroke="#53645b" stroke-width="28"/><g fill="#294037"><path d="M150 535L235 260L320 535Z"/><path d="M1280 535L1365 260L1450 535Z"/></g><path d="M400 430Q800 335 1200 430" fill="none" stroke="#6f8478" stroke-width="15"/><path d="M510 625Q800 585 1090 625L1030 720Q800 750 570 720Z" fill="url(#m)" stroke="#d6e1cb" stroke-width="11"/><path d="M580 720L535 875M1020 720L1065 875" stroke="#211812" stroke-width="30"/><g fill="#d6e1cb"><circle cx="700" cy="610" r="18"/><circle cx="800" cy="600" r="22"/><circle cx="900" cy="610" r="18"/></g><ellipse cx="800" cy="710" rx="430" ry="75" fill="#000" opacity=".55"/><ellipse cx="800" cy="430" rx="580" ry="390" fill="url(#g)" opacity=".22"/><rect width="1600" height="900" fill="none" stroke="#000" stroke-width="36" stroke-opacity=".42"/></svg>