<svg xmlns="http://www.w3.org/2000/svg" viewBox="0 0 1600 900"><defs>
<linearGradient id="bg" x2="0" y2="1"><stop stop-color="#061018"/><stop offset=".6" stop-color="#151b20"/><stop offset="1" stop-color="#050608"/></linearGradient>
<linearGradient id="floor" x2="0" y2="1"><stop stop-color="#1b2021"/><stop offset="1" stop-color="#050608"/></linearGradient>
<linearGradient id="mat" x2="0" y2="1"><stop stop-color="#493728"/><stop offset=".5" stop-color="#1d1714"/><stop offset="1" stop-color="#09090a"/></linearGradient>
<radialGradient id="light"><stop stop-color="#9aafc2" stop-opacity=".75"/><stop offset=".35" stop-color="#9aafc2" stop-opacity=".2"/><stop offset="1" stop-color="#9aafc2" stop-opacity="0"/></radialGradient>
<filter id="blur"><feGaussianBlur stdDeviation="14"/></filter>
<filter id="soft"><feGaussianBlur stdDeviation="4"/></filter>
<pattern id="plank" width="160" height="52" patternUnits="userSpaceOnUse"><path d="M0 50H160" stroke="#c29b68" stroke-opacity=".12" stroke-width="5"/><path d="M20 8C60 0 100 16 150 7" fill="none" stroke="#d5aa73" stroke-opacity=".07" stroke-width="3"/></pattern>
</defs>
<rect width="1600" height="900" fill="url(#bg)"/>
<g fill="#172127" stroke="#50606b" stroke-width="10"><path d="M40 640L150 150L300 640Z"/><path d="M280 640L410 100L570 640Z"/><path d="M1050 640L1200 90L1370 640Z"/><path d="M1260 640L1430 150L1570 640Z"/></g>
<path d="M0 520Q300 430 600 520T1200 510T1600 520V650H0Z" fill="#273239" stroke="#66727a" stroke-width="8"/>
<g fill="#2c3437" stroke="#78828a" stroke-width="10"><path d="M220 640V300L350 180L480 300V640Z"/><path d="M1120 640V300L1250 180L1380 300V640Z"/></g>
<g fill="#0a0f12" stroke="#9b8b70" stroke-width="7"><path d="M280 390V300L350 235L420 300V390Z"/><path d="M1180 390V300L1250 235L1320 300V390Z"/></g>
<g fill="#7e6650"><path d="M610 640L700 470H900L990 640Z"/></g>
<path d="M700 470V315Q800 205 900 315V470" fill="#0b1115" stroke="#88939a" stroke-width="10"/>
<g fill="#5c6d78"><rect x="760" y="325" width="80" height="145"/><path d="M775 360L800 330L825 360V430H775Z"/></g>
<g fill="#d6b978"><circle cx="800" cy="390" r="16"/><circle cx="350" cy="470" r="12"/><circle cx="1250" cy="470" r="12"/></g>
<path d="M0 650L800 505L1600 650V900H0Z" fill="url(#floor)"/><path d="M0 745L800 575L1600 745M0 840L800 650L1600 840" stroke="#91a2ad" stroke-opacity=".13" stroke-width="5"/>
<circle cx="800" cy="350" r="330" fill="url(#light)" opacity=".2"/></svg>