<svg xmlns="http://www.w3.org/2000/svg" viewBox="0 0 1600 900" preserveAspectRatio="xMidYMid slice"><defs><linearGradient id="s" x2="0" y2="1"><stop stop-color="#0c1420"/><stop offset=".55" stop-color="#263b52"/><stop offset="1" stop-color="#070b11"/></linearGradient><linearGradient id="g" x2="0" y2="1"><stop stop-color="#28323b"/><stop offset="1" stop-color="#090b0e"/></linearGradient><radialGradient id="l"><stop stop-color="#b8ddff" stop-opacity=".8"/><stop offset="1" stop-color="#b8ddff" stop-opacity="0"/></radialGradient></defs><rect width="1600" height="900" fill="url(#s)"/><path d="M0 500L190 330L350 455L510 270L690 455L800 220L910 455L1090 275L1250 455L1410 330L1600 480V610H0Z" fill="#1a2835" stroke="#647587" stroke-width="9"/><g fill="#34414b" stroke="#a9b6bf" stroke-width="8"><path d="M90 610V245L240 155L390 245V610Z"/><path d="M1210 610V235L1360 145L1510 235V610Z"/></g><path d="M500 610V350L800 125L1100 350V610Z" fill="#1b2731" stroke="#9eacb6" stroke-width="12"/><path d="M590 610V385L800 215L1010 385V610" fill="#071018" stroke="#7d8d98" stroke-width="7"/><path d="M800 165V500M690 330H910" stroke="#bddbff" stroke-opacity=".65" stroke-width="7"/><g fill="#b9dcff"><circle cx="800" cy="270" r="16"/><circle cx="240" cy="390" r="10"/><circle cx="1360" cy="380" r="10"/></g><path d="M0 590L800 455L1600 590V900H0Z" fill="url(#g)"/><path d="M0 655L800 505L1600 655M0 770L800 565L1600 770" fill="none" stroke="#d4b47a" stroke-opacity=".13" stroke-width="5"/><ellipse cx="800" cy="380" rx="420" ry="260" fill="url(#l)" opacity=".4"/><rect width="1600" height="900" fill="none" stroke="#000" stroke-opacity=".35" stroke-width="70"/></svg>