<svg xmlns="http://www.w3.org/2000/svg" viewBox="0 0 1600 900" preserveAspectRatio="xMidYMid slice">
<defs>
 <linearGradient id="sky" x2="0" y2="1"><stop stop-color="#101924"/><stop offset=".55" stop-color="#31465a"/><stop offset="1" stop-color="#090d12"/></linearGradient>
 <linearGradient id="ground" x2="0" y2="1"><stop stop-color="#493522"/><stop offset="1" stop-color="#0d0907"/></linearGradient>
 <linearGradient id="stone" x2="0" y2="1"><stop stop-color="#697078"/><stop offset=".45" stop-color="#343a40"/><stop offset="1" stop-color="#15191d"/></linearGradient>
 <linearGradient id="wood" x2="0" y2="1"><stop stop-color="#8a5935"/><stop offset=".5" stop-color="#4a2b1b"/><stop offset="1" stop-color="#1b100b"/></linearGradient>
 <radialGradient id="light"><stop stop-color="#e2b56b" stop-opacity=".9"/><stop offset=".28" stop-color="#e2b56b" stop-opacity=".25"/><stop offset="1" stop-color="#e2b56b" stop-opacity="0"/></radialGradient>
 <filter id="blur"><feGaussianBlur stdDeviation="18"/></filter>
 <filter id="glow"><feGaussianBlur stdDeviation="7"/></filter>
 <pattern id="brick" width="100" height="46" patternUnits="userSpaceOnUse"><path d="M0 0H100M0 46H100M50 0V23M0 23H50M100 23H50" stroke="#d8c8a5" stroke-opacity=".11" stroke-width="3"/></pattern>
 <pattern id="stonefloor" width="180" height="90" patternUnits="userSpaceOnUse"><path d="M0 2H180M0 88H180M2 0V90M178 0V90" stroke="#d0b07a" stroke-opacity=".11" stroke-width="4"/></pattern>
</defs>
<rect width="1600" height="900" fill="url(#sky)"/>

<path d="M0 500L150 360L300 455L470 280L640 455L800 250L960 455L1130 290L1300 455L1470 350L1600 450V610H0Z" fill="#1a252e" stroke="#66737d" stroke-width="9"/>
<g fill="url(#stone)" stroke="#161b1f" stroke-width="10"><path d="M110 610V280H360V610Z"/><path d="M1240 610V270H1490V610Z"/></g>
<path d="M515 610V365Q800 100 1085 365V610Z" fill="#22282d" stroke="#9e8055" stroke-width="12"/>
<path d="M590 610V395Q800 205 1010 395V610Z" fill="#0c1115" stroke="#6d7780" stroke-width="8"/>
<path d="M800 180V520M640 350H960" stroke="#b88b4d" stroke-width="8"/>
<g fill="#b47a3e"><path d="M360 560L410 460L460 560Z"/><path d="M1140 560L1190 460L1240 560Z"/></g>
<ellipse cx="800" cy="400" rx="370" ry="240" fill="url(#light)" opacity=".35"/>

<path d="M0 590L800 455L1600 590V900H0Z" fill="url(#ground)"/>
<path d="M0 655L800 505L1600 655M0 770L800 565L1600 770" fill="none" stroke="#d4b47a" stroke-opacity=".13" stroke-width="5"/>
<rect y="600" width="1600" height="300" fill="url(#stonefloor)" opacity=".25"/>
<rect x="0" y="0" width="1600" height="900" fill="url(#light)" opacity=".22"/>
<path d="M0 0H1600V900H0Z" fill="none" stroke="#000" stroke-opacity=".35" stroke-width="70"/>
<g fill="#f2d9a0" opacity=".8"><circle cx="140" cy="130" r="3"/><circle cx="310" cy="95" r="2"/><circle cx="1260" cy="120" r="3"/><circle cx="1450" cy="210" r="2"/></g>
<title>Меридиан</title>
</svg>